<svg xmlns="http://www.w3.org/2000/svg" viewBox="0 0 1159.84 1272.09">
    <defs>
        <style>
        .cls-1 {
            fill: #fff;
        }
        </style>
    </defs>
    <path class="cls-1" d="M.45,765.41q29.86,19.92,59.71,39.84L308.55,971.15c5.49,3.67,5.55,3.69,8.9-1.85q71.27-118,149.22-231.77c56.27-81.8,114.74-162,177.47-239q57.59-70.68,117.62-139.36Q845.46,264,938.53,177.68c58.09-54.09,118.61-105.2,182.94-151.75,11.19-8.1,22.59-15.92,33.91-23.85A12.22,12.22,0,0,1,1159.84,0c-7.93,8.67-16,17.22-23.78,26-31.51,35.73-63.27,71.25-94.32,107.38C995.16,187.62,951,243.75,908,300.9A3782.58,3782.58,0,0,0,680.61,641.26c-69.37,116.83-132.57,236.93-191,359.57-41.7,87.55-80.85,176.23-118.17,265.73-.64,1.52-1.33,3-2.44,5.53L0,766.17Z" />
</svg>
