<svg xmlns="http://www.w3.org/2000/svg" xmlns:xlink="http://www.w3.org/1999/xlink" viewBox="0 0 409.6 409.6">
    <defs>
        <style>
        .cls{
            fill: #fff;
        }
        .cls-1,
        .cls-3 {
            fill: none;
        }
        
        .cls-2 {
            clip-path: url(#clip-path);
        }
        
        .cls-3 {
            stroke: #fff;
            stroke-linecap: round;
            stroke-miterlimit: 10;
            stroke-width: 37px;
        }
        </style>
        <clipPath id="clip-path">
            <rect class="cls-1" width="409.92" height="410" />
        </clipPath>
    </defs>
    <title>zoom</title>
    <g id="Слой_2" data-name="Слой 2">
        <g id="Слой_1-2" data-name="Слой 1">
            <g class="cls-2">
                <path class="cls" d="M398.35,344.05l-94-94a180.78,180.78,0,0,1-54.3,54.3l94,94a38.4,38.4,0,1,0,54.3-54.3Zm0,0" />
            </g>
            <path class="cls" d="M307.2,153.6A153.6,153.6,0,1,0,153.6,307.2,153.6,153.6,0,0,0,307.2,153.6ZM153.6,268.8A115.2,115.2,0,1,1,268.8,153.6,115.33,115.33,0,0,1,153.6,268.8Zm0,0" />
            <path d="M64,153.6" />
            <line class="cls-3" x1="82" y1="152.21" x2="224.58" y2="152.21" />
            <line class="cls-3" x1="153.29" y1="80.92" x2="153.29" y2="223.5" />
        </g>
    </g>
</svg>
