<svg xmlns="http://www.w3.org/2000/svg" width="261.468" height="27.906" viewBox="0 0 261.468 27.906">
    <defs>
        <style>
        .cls-1,
        .cls-2 {
            fill-rule: evenodd;
        }
        
        .cls-2 {
            fill: #f297aa;
        }
        </style>
    </defs>
    <path id="Actually_" data-name="Actually " class="cls-1" d="M695.83,60.473L684.949,82.02h2.568l3.587-7.09h9.922l3.623,7.09h2.486L696.394,60.473H695.83Zm4.2,12.378h-7.874l3.946-7.8Zm24.984-5.434a9.332,9.332,0,0,0-2.669-1.26,11.057,11.057,0,0,0-3.265-.483,10.538,10.538,0,0,0-4.869,1.113,8.537,8.537,0,0,0-3.421,3.1,7.942,7.942,0,0,0-1.245,4.3,7.581,7.581,0,0,0,2.662,5.845,9.623,9.623,0,0,0,6.7,2.4,11.085,11.085,0,0,0,4.689-.949,8.065,8.065,0,0,0,3.28-2.669l-1.738-1.069a7.672,7.672,0,0,1-6.13,2.8,7.967,7.967,0,0,1-3.7-.849,6.454,6.454,0,0,1-2.6-2.385,6.151,6.151,0,0,1-.946-3.278,5.929,5.929,0,0,1,2.057-4.55,7.383,7.383,0,0,1,5.168-1.873,7.465,7.465,0,0,1,6.146,2.8l1.738-1.011A7.013,7.013,0,0,0,725.015,67.416ZM733,66.083h-2.99v1.772H733V82.02h2.192V67.855h3.476V66.083h-3.476V60.165H733v5.918Zm8.674,7.676a12.131,12.131,0,0,0,.822,5.09,5.971,5.971,0,0,0,2.49,2.637,8.331,8.331,0,0,0,4.157.945,8.244,8.244,0,0,0,4.141-.945,6.023,6.023,0,0,0,2.474-2.615,11.657,11.657,0,0,0,.822-4.966V66.083h-2.239v7.441a14.432,14.432,0,0,1-.329,3.911,4.283,4.283,0,0,1-1.765,2.175,5.6,5.6,0,0,1-3.112.828,5.727,5.727,0,0,1-3.16-.85,4.205,4.205,0,0,1-1.8-2.314,14.887,14.887,0,0,1-.314-3.75V66.083h-2.192v7.676Zm34.587-7.676v2.93a8.152,8.152,0,0,0-6.78-3.34,8.719,8.719,0,0,0-6.216,2.446,7.821,7.821,0,0,0-2.583,5.889,7.956,7.956,0,0,0,2.56,5.969,8.6,8.6,0,0,0,6.177,2.454,8.84,8.84,0,0,0,3.749-.791,9.306,9.306,0,0,0,3.093-2.358V82.02h2.16V66.083h-2.16Zm-1.807,3.426a6.129,6.129,0,0,1,1.948,4.624,6.23,6.23,0,0,1-.868,3.263,6.161,6.161,0,0,1-2.479,2.3,7.211,7.211,0,0,1-3.409.849,6.823,6.823,0,0,1-3.34-.856,6.5,6.5,0,0,1-2.478-2.392,6.1,6.1,0,0,1-.008-6.438,6.387,6.387,0,0,1,2.463-2.363,6.962,6.962,0,0,1,3.378-.841A6.677,6.677,0,0,1,774.454,69.509Zm8.571,12.512h2.191V59.931h-2.191V82.02Zm6.419,0h2.192V59.931h-2.192V82.02Zm11.908-1.207-3.279,7.037h2.315L810.55,66.083h-2.333l-5.685,12.273-5.855-12.273H794.36Z" transform="translate(-549.094 -59.938)" />
    <path id="Postcard" class="cls-2" d="M549.107,82.02h2.3V72h1.644a31.769,31.769,0,0,0,5.856-.352,6.093,6.093,0,0,0,3.366-1.882,5.721,5.721,0,0,0-.031-7.1,5.984,5.984,0,0,0-3.226-1.868,28.2,28.2,0,0,0-5.323-.322h-4.588V82.02Zm6.373-19.438a10.578,10.578,0,0,1,3.358.38,3.493,3.493,0,0,1,1.652,5.27,3.516,3.516,0,0,1-1.722,1.3,10.855,10.855,0,0,1-3.46.4l-3.9-.044v-7.31h4.071Zm13.782,5.771a8.139,8.139,0,0,0,.133,11.58,9.448,9.448,0,0,0,12.8,0,8.156,8.156,0,0,0,.133-11.594,9.318,9.318,0,0,0-13.065.015h0Zm11.223,1.216a6.1,6.1,0,0,1,1.972,4.57,6.292,6.292,0,0,1-3.315,5.53,7.3,7.3,0,0,1-6.694,0,6.282,6.282,0,0,1-1.351-10.1A6.775,6.775,0,0,1,580.485,69.569Zm12.079-3.9a4.8,4.8,0,0,0-3.349,1.2,3.9,3.9,0,0,0-1.325,3.018,3.959,3.959,0,0,0,.831,2.476,8.809,8.809,0,0,0,3.139,2.2,9.9,9.9,0,0,1,2.761,1.7,2.294,2.294,0,0,1,.612,1.567,2.383,2.383,0,0,1-.926,1.86,3.337,3.337,0,0,1-2.244.791A4.9,4.9,0,0,1,588.5,78.71l-1.378,1.465a6.054,6.054,0,0,0,2.219,1.655,6.8,6.8,0,0,0,2.814.6,5.222,5.222,0,0,0,3.685-1.362,4.355,4.355,0,0,0,1.474-3.325,3.986,3.986,0,0,0-.862-2.5,9.815,9.815,0,0,0-3.327-2.285,8.851,8.851,0,0,1-2.636-1.685,2.2,2.2,0,0,1-.627-1.48,1.982,1.982,0,0,1,.761-1.538,2.7,2.7,0,0,1,1.829-.659,5.213,5.213,0,0,1,3.438,1.6l1.409-1.362a7.143,7.143,0,0,0-4.736-2.153h0Zm10.529,0.41H600.1v1.772h2.991V82.02h2.192V67.855h3.476V66.083h-3.476V60.165h-2.192v5.918Zm23.626,1.333a9.319,9.319,0,0,0-2.669-1.26,11.052,11.052,0,0,0-3.265-.483,10.538,10.538,0,0,0-4.869,1.113,8.537,8.537,0,0,0-3.421,3.1,7.942,7.942,0,0,0-1.245,4.3,7.581,7.581,0,0,0,2.662,5.845,9.623,9.623,0,0,0,6.7,2.4,11.082,11.082,0,0,0,4.689-.949,8.075,8.075,0,0,0,3.281-2.669l-1.738-1.069a7.676,7.676,0,0,1-6.131,2.8,7.963,7.963,0,0,1-3.7-.849,6.441,6.441,0,0,1-2.6-2.385,6.143,6.143,0,0,1-.947-3.278,5.929,5.929,0,0,1,2.057-4.55,7.385,7.385,0,0,1,5.168-1.873,7.467,7.467,0,0,1,6.147,2.8l1.738-1.011A7.03,7.03,0,0,0,626.719,67.416Zm20.887-1.333v2.93a8.152,8.152,0,0,0-6.78-3.34,8.717,8.717,0,0,0-6.215,2.446,7.819,7.819,0,0,0-2.584,5.889,7.956,7.956,0,0,0,2.56,5.969,8.605,8.605,0,0,0,6.177,2.454,8.845,8.845,0,0,0,3.75-.791,9.3,9.3,0,0,0,3.092-2.358V82.02h2.161V66.083h-2.161ZM645.8,69.509a6.132,6.132,0,0,1,1.947,4.624,6.23,6.23,0,0,1-.868,3.263,6.161,6.161,0,0,1-2.479,2.3,7.211,7.211,0,0,1-3.409.849,6.816,6.816,0,0,1-3.339-.856,6.5,6.5,0,0,1-2.479-2.392,6.1,6.1,0,0,1-.008-6.438,6.387,6.387,0,0,1,2.463-2.363,6.968,6.968,0,0,1,3.378-.841A6.679,6.679,0,0,1,645.8,69.509Zm8.069,12.512h2.239V76.63a23.468,23.468,0,0,1,.407-5.508,5.242,5.242,0,0,1,1.55-2.615,3.282,3.282,0,0,1,2.113-.842,3.219,3.219,0,0,1,1.159.278l1.143-1.729a4.2,4.2,0,0,0-1.941-.542,4.374,4.374,0,0,0-2.318.681,7.593,7.593,0,0,0-2.113,2.058V66.083h-2.239V82.02ZM679,59.931v9.082a8.148,8.148,0,0,0-6.779-3.34A8.718,8.718,0,0,0,666,68.119a7.822,7.822,0,0,0-2.584,5.889,7.96,7.96,0,0,0,2.56,5.969,8.605,8.605,0,0,0,6.177,2.454,8.841,8.841,0,0,0,3.75-.791A9.293,9.293,0,0,0,679,79.281V82.02h2.161V59.931H679Zm-1.806,9.578a6.132,6.132,0,0,1,1.947,4.624,6.075,6.075,0,0,1-3.347,5.56,7.211,7.211,0,0,1-3.409.849,6.816,6.816,0,0,1-3.339-.856,6.5,6.5,0,0,1-2.479-2.392,6.1,6.1,0,0,1-.008-6.438,6.383,6.383,0,0,1,2.464-2.363,6.962,6.962,0,0,1,3.378-.841A6.678,6.678,0,0,1,677.192,69.509Z" transform="translate(-549.094 -59.938)" />
</svg>
