<svg xmlns="http://www.w3.org/2000/svg" viewBox="0 0 181 158.21"><defs><style>.cls-1{fill:none;stroke:#000;stroke-miterlimit:10;}</style></defs><title>record</title><g id="Слой_2" data-name="Слой 2"><g id="Layer_1" data-name="Layer 1"><path class="cls-1" d="M138.7,120.83l-3.21-2.57h.18a3.51,3.51,0,1,0,0-7h-3.51a1.1,1.1,0,0,0-1.17,1.17v9.35a1.17,1.17,0,1,0,2.34,0v-2.24l4,3.18a1.66,1.66,0,0,0,.7.23,1.06,1.06,0,0,0,.93-.47A1.26,1.26,0,0,0,138.7,120.83Zm-1.87-6.08a1.1,1.1,0,0,1-1.17,1.17h-2.34v-2.34h2.34A1.1,1.1,0,0,1,136.83,114.76Z"/><path class="cls-1" d="M147.35,118.26a1.17,1.17,0,0,0,0-2.34h-3.51v-2.34h3.51a1.17,1.17,0,0,0,0-2.34h-4.67a1.1,1.1,0,0,0-1.17,1.17v9.35a1.1,1.1,0,0,0,1.17,1.17h4.67a1.17,1.17,0,0,0,0-2.34h-3.51v-2.34Z"/><path class="cls-1" d="M157,123.57a6.16,6.16,0,1,1,3.92-11,1.11,1.11,0,0,1-1.46,1.68,3.91,3.91,0,0,0-2.46-.9,3.92,3.92,0,1,0,0,7.84,3.91,3.91,0,0,0,2.46-.9,1.11,1.11,0,0,1,1.46,1.68A5.32,5.32,0,0,1,157,123.57Z"/><path class="cls-1" d="M122.46,121.48a4.3,4.3,0,1,1,4.3-4.3A4.31,4.31,0,0,1,122.46,121.48Z"/><circle class="cls-1" cx="140.73" cy="117.94" r="39.77"/><path class="cls-1" d="M77.56,62,59.87,48.34a2.18,2.18,0,0,0-3.52,1.72V78a2.18,2.18,0,0,0,3.54,1.7l17.69-14.2a2.18,2.18,0,0,0,0-3.42Z"/><path class="cls-1" d="M131,75.53V28.41H.5V99.63H101.06A42,42,0,0,1,131,75.53ZM65.76,95.27A31.25,31.25,0,1,1,97,64,31.29,31.29,0,0,1,65.76,95.27Z"/><path class="cls-1" d="M131,19.11H120.42a2.18,2.18,0,0,1-2.18-2.18V5.3a2.18,2.18,0,0,1,2.18-2.18H131V.5H.5V3.12H11.11A2.18,2.18,0,0,1,13.29,5.3V16.92a2.18,2.18,0,0,1-2.18,2.18H.5V24H131ZM37.71,16.92a2.18,2.18,0,0,1-2.18,2.18H22.74a2.18,2.18,0,0,1-2.18-2.18V5.3a2.18,2.18,0,0,1,2.18-2.18H35.53A2.18,2.18,0,0,1,37.71,5.3Zm24.42,0a2.18,2.18,0,0,1-2.18,2.18H47.16A2.18,2.18,0,0,1,45,16.92V5.3a2.18,2.18,0,0,1,2.18-2.18H59.95A2.18,2.18,0,0,1,62.13,5.3Zm24.42,0a2.18,2.18,0,0,1-2.18,2.18H71.58a2.18,2.18,0,0,1-2.18-2.18V5.3a2.18,2.18,0,0,1,2.18-2.18H84.37A2.18,2.18,0,0,1,86.55,5.3Zm24.42,0a2.18,2.18,0,0,1-2.18,2.18H96a2.18,2.18,0,0,1-2.18-2.18V5.3A2.18,2.18,0,0,1,96,3.12h12.79A2.18,2.18,0,0,1,111,5.3Z"/><path class="cls-1" d="M98.1,123.76H96a2.18,2.18,0,0,1-2.18-2.18V110A2.18,2.18,0,0,1,96,107.77h2.42q.41-1.92,1-3.78H.5v3.78H11.11A2.18,2.18,0,0,1,13.29,110v11.63a2.18,2.18,0,0,1-2.18,2.18H.5v3.78H98.93Q98.43,125.68,98.1,123.76Zm-60.39-2.18a2.18,2.18,0,0,1-2.18,2.18H22.74a2.18,2.18,0,0,1-2.18-2.18V110a2.18,2.18,0,0,1,2.18-2.18H35.53A2.18,2.18,0,0,1,37.71,110Zm24.42,0a2.18,2.18,0,0,1-2.18,2.18H47.16A2.18,2.18,0,0,1,45,121.58V110a2.18,2.18,0,0,1,2.18-2.18H59.95A2.18,2.18,0,0,1,62.13,110Zm24.42,0a2.18,2.18,0,0,1-2.18,2.18H71.58a2.18,2.18,0,0,1-2.18-2.18V110a2.18,2.18,0,0,1,2.18-2.18H84.37A2.18,2.18,0,0,1,86.55,110Z"/><path class="cls-1" d="M76,43.31a2.18,2.18,0,0,0-1.94,3.91,18.93,18.93,0,0,1,9.35,10.55,2.18,2.18,0,0,0,4.11-1.45A23.33,23.33,0,0,0,76,43.31Z"/><polyline class="cls-1" points="163.91 102.96 170.91 102.96 170.91 132.92 163.91 132.92"/><polyline class="cls-1" points="118.16 102.96 111.16 102.96 111.16 132.92 118.16 132.92"/></g></g></svg>