<?xml version="1.0" standalone="no"?>
<!DOCTYPE svg PUBLIC "-//W3C//DTD SVG 20010904//EN"
 "http://www.w3.org/TR/2001/REC-SVG-20010904/DTD/svg10.dtd">
<svg version="1.0" xmlns="http://www.w3.org/2000/svg"
 width="16.000000pt" height="16.000000pt" viewBox="0 0 16.000000 16.000000"
 preserveAspectRatio="xMidYMid meet">
<metadata>
Created by potrace 1.11, written by Peter Selinger 2001-2013
</metadata>
<g transform="translate(0.000000,16.000000) scale(0.006154,-0.006154)"
fill="#000000" stroke="none">
<path d="M0 1291 l0 -1002 98 3 97 3 1 458 c0 251 3 459 5 461 2 2 114 6 249
10 264 6 303 10 394 32 178 44 308 162 366 334 7 19 14 83 16 141 6 176 -36
290 -148 400 -77 76 -181 126 -303 144 -22 4 -205 9 -407 12 l-368 5 0 -1001z
m740 789 c115 -20 180 -61 233 -145 70 -110 68 -251 -4 -365 -31 -49 -46 -64
-100 -97 -76 -47 -136 -56 -411 -57 l-258 -2 -1 25 c-1 33 -1 633 0 646 1 14
459 10 541 -5z"/>
<path d="M1600 2218 c-18 -40 -54 -118 -80 -173 -26 -55 -73 -156 -105 -225
-32 -69 -82 -176 -111 -238 -30 -62 -54 -115 -54 -117 0 -2 -29 -65 -65 -140
-36 -76 -65 -139 -65 -140 0 -2 -29 -65 -65 -140 -36 -76 -65 -138 -65 -140 0
-2 -24 -54 -54 -116 -91 -193 -226 -487 -226 -493 0 -3 49 -6 108 -6 l108 0
24 52 c13 29 44 96 68 148 24 52 60 129 79 170 19 41 57 123 85 181 l50 106
423 1 423 0 38 -82 c21 -44 71 -151 111 -236 40 -85 92 -196 116 -247 l42 -92
108 -1 c60 0 106 3 104 8 -2 4 -11 23 -20 42 -8 19 -31 69 -50 110 -19 41 -71
154 -115 250 -91 200 -123 269 -197 430 -29 63 -89 194 -133 290 -44 96 -93
204 -110 240 -30 65 -56 122 -107 235 -15 33 -48 105 -74 160 -26 55 -60 130
-76 167 -26 58 -34 67 -56 68 -23 0 -30 -9 -59 -72z m113 -473 c25 -55 69
-149 97 -210 55 -116 67 -143 136 -295 l43 -95 -164 -3 c-90 -1 -240 -1 -333
0 l-169 3 58 125 c64 138 115 246 197 420 29 63 59 127 65 142 6 15 14 24 18
20 3 -4 27 -52 52 -107z"/>
</g>
</svg>
